<?xml version="1.0" encoding="utf-8"?>
<!-- Generator: Adobe Illustrator 20.1.0, SVG Export Plug-In . SVG Version: 6.00 Build 0)  -->
<svg version="1.1" id="Layer_1" xmlns="http://www.w3.org/2000/svg" xmlns:xlink="http://www.w3.org/1999/xlink" x="0px" y="0px"
	 viewBox="0 0 192 192" style="enable-background:new 0 0 192 192;" xml:space="preserve">
<style type="text/css">
	.st0{fill:#FFFFFF;}
	.st1{fill:#2A84E7;}
</style>
<g>
	<circle class="st0" cx="96" cy="96.2" r="87.5"/>
	<path class="st1" d="M188.1,98.6c-0.4,22.9-9.1,44.8-27,62.6c-17.9,17.8-39.7,26.9-65,26.8c-25.2,0-47.1-9.1-64.9-27
		c-17.8-17.9-26.8-39.7-26.8-65c0-25.2,9.1-47,26.9-64.8c17.9-17.8,39.7-26.7,65-26.9c11.7-0.1,23.1,2.2,34.1,6.6
		c11.7,4.7,22,11.5,30.9,20.4c8.1,8.1,14.5,17.5,19.2,28.1C185.5,71.2,188,83.5,188.1,98.6z M117.7,127.8c0.4-0.1,0.4,0.1,0.5,0.3
		c1.5,2.5,3.4,4.6,5.6,6.5c5.1,4.2,11,6.4,17.6,6.7c3.5,0.1,6.9,0.1,10.3-0.8c7.1-1.8,13.1-5.5,17.7-11.3c4.9-6.2,7.4-13.2,7.7-21.1
		c0.1-3.9,0-7.7-1-11.5c-1.5-5.9-4.2-11.1-8.3-15.5c-2.5-2.7-5.5-4.9-8.9-6.6c-4.4-2.2-9.1-3.4-13.9-3.7c-2.9-0.2-5.8-0.1-8.7,0.4
		c-3.7,0.7-7.1,2-10.3,3.9c-2.7,1.7-5.1,3.7-7.2,6c-0.3,0.3-0.6,0.7-1.2,1c0-3.3,0-9.6,0-9.6l-11.3,0l0,99.3l0,0.6h0.1h0.1h11l0-4.5
		c0,0,0-3,0-4.4c0-1.5,0-3,0-4.4s0-3,0-4.4s0-3,0-4.4c0-1.5,0-3,0-4.6c0-1.5,0-3,0-4.4s0-3,0-4.4s0-3,0-4.4
		C117.6,130.6,117.6,129.2,117.7,127.8z M39,62.7c0.7-3.2,1.8-6,3.5-8.5c3.5-4.9,8.3-7.3,14.3-7.7c2-0.1,4.1,0,6.1,0.5
		c3.1,0.7,5.9,2,8.3,4.2c3.6,3.2,5.3,7.4,5.4,12.2c0,1.2-0.1,2.3-0.2,3.5c-0.2,2.7-1,5.1-2.2,7.5c-1.6,3.2-3.9,5.9-6.4,8.5
		c-3.7,3.8-7.5,7.6-11.4,11.3c-3.8,3.6-7.5,7.4-11.3,11.1c-3.1,2.9-6,6-9.1,8.9c-3.8,3.6-7.4,7.4-11.2,11c-0.5,0.5-0.7,1-0.7,1.7
		c0,3.9,0,11.8,0,11.8l0,1l65.2-0.1v-11.2c0,0-34.3,0-51.5,0c0.2-0.5,0.6-0.8,0.9-1c2-1.9,4.1-3.8,6.1-5.7c2.7-2.5,5.3-5,7.9-7.5
		c2.9-2.8,5.9-5.5,8.8-8.3c2.7-2.5,5.4-5,8-7.6c3.5-3.4,7-6.7,10.1-10.4c2.8-3.5,5.2-7.2,6.9-11.4c1.1-2.8,1.8-5.7,2.1-8.6
		c0.2-2.1,0.1-4.2,0.1-6.2c0-1.5-0.2-2.9-0.6-4.4c-1.9-7.8-6.5-13.5-13.7-17.2C69.2,37.2,63.6,36.3,58,36c-0.8,0-1.7,0.2-2.5,0.2
		c-1.6,0-3.2,0.2-4.7,0.5c-4,0.7-7.7,2-11.2,4c-2.8,1.7-5.4,3.7-7.4,6.3c-2.8,3.5-4.7,7.5-5.7,12c-0.2,0.8-0.4,1.7-0.4,2.6
		C30.3,62,34.6,62.4,39,62.7z"/>
	<path class="st1" d="M165.1,105.9c-0.1,4.4-0.8,8.6-2.9,12.5c-2.8,5.5-7.2,9.2-12.9,11.2c-3.1,1.1-6.4,1.4-9.6,1.2
		c-4.2-0.3-8.1-1.5-11.6-3.9c-4-2.7-6.8-6.3-8.5-10.8c-1.1-2.9-1.6-5.8-1.8-8.9c-0.1-4,0.3-7.8,1.8-11.5c1.9-4.8,5-8.6,9.4-11.4
		c2.8-1.7,5.7-2.7,8.9-3.1c6-0.7,11.7,0.2,16.7,3.6c4.2,2.8,7.2,6.6,8.8,11.4c0.8,2.2,1.3,4.4,1.5,6.7
		C165,103.9,165.1,104.9,165.1,105.9z"/>
</g>
</svg>
